<?xml version="1.0" encoding="utf-8"?>
<svg viewBox="41.1816 49.6563 565.5778 225.1719" xmlns="http://www.w3.org/2000/svg">
  <g id="surface1" transform="matrix(1, 0, 0, 1, -384.88677978515625, -126.62109375)">
    <path style=" stroke:none;fill-rule:nonzero;fill:rgb(0.799561%,17.298889%,39.199829%);fill-opacity:1;" d="M 846.796875 401.441406 L 814.40625 401.441406 L 814.40625 309.382812 L 912.445312 309.382812 C 926.464844 309.382812 939.421875 303.703125 947.984375 293.796875 C 955.179688 285.472656 958.96875 274.808594 959.238281 262.097656 C 959.515625 249.394531 955.699219 238.539062 947.582031 228.90625 C 936.738281 216.046875 920.28125 208.667969 902.425781 208.667969 L 812.960938 208.667969 L 812.960938 176.277344 L 902.425781 176.277344 C 929.851562 176.277344 955.339844 187.851562 972.347656 208.03125 C 985.582031 223.730469 992.066406 242.15625 991.625 262.792969 C 991.179688 283.242188 984.742188 300.800781 972.480469 314.980469 C 957.761719 332.003906 935.878906 341.769531 912.445312 341.769531 L 846.796875 341.769531 Z M 846.796875 401.441406 "/>
    <path style=" stroke:none;fill-rule:nonzero;fill:rgb(0%,65.499878%,64.698792%);fill-opacity:1;" d="M 910.15625 274.019531 L 812.960938 274.019531 L 812.960938 241.628906 L 910.15625 241.628906 C 919.101562 241.628906 926.351562 248.878906 926.351562 257.824219 C 926.351562 266.769531 919.101562 274.019531 910.15625 274.019531 "/>
    <path style=" stroke:none;fill-rule:nonzero;fill:rgb(0.799561%,17.298889%,39.199829%);fill-opacity:1;" d="M 604.75 401.441406 L 515.285156 401.441406 C 487.859375 401.441406 462.375 389.867188 445.363281 369.683594 C 432.128906 353.980469 425.644531 335.554688 426.089844 314.921875 C 426.53125 294.46875 432.96875 276.910156 445.226562 262.738281 C 459.949219 245.714844 481.835938 235.945312 505.269531 235.945312 L 570.917969 235.945312 L 570.917969 176.277344 L 603.308594 176.277344 L 603.308594 268.335938 L 505.269531 268.335938 C 491.246094 268.335938 478.292969 274.019531 469.726562 283.925781 C 462.53125 292.242188 458.746094 302.90625 458.472656 315.621094 C 458.195312 328.320312 462.007812 339.175781 470.125 348.808594 C 480.96875 361.675781 497.429688 369.054688 515.285156 369.054688 L 604.75 369.054688 Z M 604.75 401.441406 "/>
    <path style=" stroke:none;fill-rule:nonzero;fill:rgb(0%,65.499878%,64.698792%);fill-opacity:1;" d="M 604.75 336.089844 L 507.554688 336.089844 C 498.609375 336.089844 491.359375 328.835938 491.359375 319.894531 C 491.359375 310.949219 498.609375 303.699219 507.554688 303.699219 L 604.75 303.699219 Z M 604.75 336.089844 "/>
    <path style=" stroke:none;fill-rule:nonzero;fill:rgb(0.799561%,17.298889%,39.199829%);fill-opacity:1;" d="M 786.03125 176.285156 L 708.855469 225.855469 L 631.683594 176.285156 L 631.496094 176.285156 L 631.496094 401.449219 L 663.886719 401.449219 L 663.886719 236.773438 L 708.855469 263.617188 L 753.824219 236.773438 L 753.824219 401.449219 L 786.214844 401.449219 L 786.214844 176.285156 Z M 786.03125 176.285156 "/>
  </g>
</svg>