<?xml version="1.0" encoding="utf-8"?>
<svg viewBox="-45.1368 345.2617 742.2813 105.082" xmlns="http://www.w3.org/2000/svg">
  <g id="surface1" transform="matrix(1, 0, 0, 1, -384.8867797851563, -126.62109375)">
    <path style=" stroke:none;fill-rule:nonzero;fill:rgb(10.598755%,27.799988%,55.699158%);fill-opacity:1;" d="M 355.21875 507.746094 C 364.476562 507.746094 370.417969 502.070312 370.417969 493.667969 C 370.417969 485.265625 364.476562 479.589844 355.21875 479.589844 L 345.101562 479.589844 L 345.101562 507.746094 Z M 339.75 474.933594 L 355.539062 474.933594 C 367.582031 474.933594 375.773438 482.535156 375.773438 493.667969 C 375.773438 504.800781 367.582031 512.402344 355.539062 512.402344 L 339.75 512.402344 Z M 339.75 474.933594 "/>
    <path style=" stroke:none;fill-rule:nonzero;fill:rgb(10.598755%,27.799988%,55.699158%);fill-opacity:1;" d="M 383.214844 484.03125 L 388.355469 484.03125 L 388.355469 512.402344 L 383.214844 512.402344 Z M 382.304688 475.253906 C 382.304688 473.382812 383.804688 471.882812 385.785156 471.882812 C 387.765625 471.882812 389.265625 473.328125 389.265625 475.144531 C 389.265625 477.074219 387.820312 478.570312 385.785156 478.570312 C 383.804688 478.570312 382.304688 477.128906 382.304688 475.253906 "/>
    <path style=" stroke:none;fill-rule:nonzero;fill:rgb(10.598755%,27.799988%,55.699158%);fill-opacity:1;" d="M 413.40625 483.765625 L 413.40625 488.742188 C 412.980469 488.691406 412.605469 488.691406 412.230469 488.691406 C 406.714844 488.691406 403.289062 492.0625 403.289062 498.273438 L 403.289062 512.402344 L 398.152344 512.402344 L 398.152344 484.03125 L 403.078125 484.03125 L 403.078125 488.796875 C 404.894531 485.476562 408.429688 483.765625 413.40625 483.765625 "/>
    <path style=" stroke:none;fill-rule:nonzero;fill:rgb(10.598755%,27.799988%,55.699158%);fill-opacity:1;" d="M 421.972656 496.238281 L 440.171875 496.238281 C 439.636719 491.472656 436.050781 488.101562 431.074219 488.101562 C 426.148438 488.101562 422.507812 491.421875 421.972656 496.238281 M 444.992188 499.929688 L 421.972656 499.929688 C 422.617188 504.910156 426.628906 508.226562 432.25 508.226562 C 435.570312 508.226562 438.355469 507.101562 440.441406 504.800781 L 443.277344 508.121094 C 440.707031 511.117188 436.800781 512.722656 432.089844 512.722656 C 422.9375 512.722656 416.835938 506.675781 416.835938 498.21875 C 416.835938 489.8125 422.882812 483.765625 431.074219 483.765625 C 439.261719 483.765625 445.097656 489.652344 445.097656 498.378906 C 445.097656 498.804688 445.042969 499.449219 444.992188 499.929688 "/>
    <path style=" stroke:none;fill-rule:nonzero;fill:rgb(10.598755%,27.799988%,55.699158%);fill-opacity:1;" d="M 449.597656 498.21875 C 449.597656 489.761719 455.859375 483.765625 464.585938 483.765625 C 469.671875 483.765625 473.898438 485.851562 476.148438 489.8125 L 472.238281 492.328125 C 470.417969 489.546875 467.636719 488.261719 464.53125 488.261719 C 458.964844 488.261719 454.789062 492.167969 454.789062 498.21875 C 454.789062 504.371094 458.964844 508.226562 464.53125 508.226562 C 467.636719 508.226562 470.417969 506.941406 472.238281 504.160156 L 476.148438 506.621094 C 473.898438 510.582031 469.671875 512.722656 464.585938 512.722656 C 455.859375 512.722656 449.597656 506.675781 449.597656 498.21875 "/>
    <path style=" stroke:none;fill-rule:nonzero;fill:rgb(10.598755%,27.799988%,55.699158%);fill-opacity:1;" d="M 499.113281 510.742188 C 497.5625 512.082031 495.203125 512.722656 492.902344 512.722656 C 487.175781 512.722656 483.910156 509.566406 483.910156 503.839844 L 483.910156 488.261719 L 479.09375 488.261719 L 479.09375 484.03125 L 483.910156 484.03125 L 483.910156 477.824219 L 489.050781 477.824219 L 489.050781 484.03125 L 497.1875 484.03125 L 497.1875 488.261719 L 489.050781 488.261719 L 489.050781 503.625 C 489.050781 506.675781 490.65625 508.386719 493.492188 508.386719 C 494.992188 508.386719 496.4375 507.90625 497.507812 507.050781 Z M 499.113281 510.742188 "/>
    <path style=" stroke:none;fill-rule:nonzero;fill:rgb(10.598755%,27.799988%,55.699158%);fill-opacity:1;" d="M 505.324219 484.03125 L 510.464844 484.03125 L 510.464844 512.402344 L 505.324219 512.402344 Z M 504.414062 475.253906 C 504.414062 473.382812 505.914062 471.882812 507.894531 471.882812 C 509.875 471.882812 511.371094 473.328125 511.371094 475.144531 C 511.371094 477.074219 509.925781 478.570312 507.894531 478.570312 C 505.914062 478.570312 504.414062 477.128906 504.414062 475.253906 "/>
    <path style=" stroke:none;fill-rule:nonzero;fill:rgb(10.598755%,27.799988%,55.699158%);fill-opacity:1;" d="M 541.9375 498.21875 C 541.9375 492.167969 537.871094 488.261719 532.410156 488.261719 C 526.949219 488.261719 522.828125 492.167969 522.828125 498.21875 C 522.828125 504.265625 526.949219 508.226562 532.410156 508.226562 C 537.871094 508.226562 541.9375 504.265625 541.9375 498.21875 M 517.636719 498.21875 C 517.636719 489.761719 523.898438 483.765625 532.410156 483.765625 C 540.921875 483.765625 547.128906 489.761719 547.128906 498.21875 C 547.128906 506.675781 540.921875 512.722656 532.410156 512.722656 C 523.898438 512.722656 517.636719 506.675781 517.636719 498.21875 "/>
    <path style=" stroke:none;fill-rule:nonzero;fill:rgb(10.598755%,27.799988%,55.699158%);fill-opacity:1;" d="M 581.175781 496.078125 L 581.175781 512.402344 L 576.039062 512.402344 L 576.039062 496.664062 C 576.039062 491.097656 573.253906 488.367188 568.382812 488.367188 C 562.921875 488.367188 559.390625 491.632812 559.390625 497.789062 L 559.390625 512.402344 L 554.253906 512.402344 L 554.253906 484.03125 L 559.175781 484.03125 L 559.175781 488.3125 C 561.265625 485.425781 564.90625 483.765625 569.402344 483.765625 C 576.304688 483.765625 581.175781 487.726562 581.175781 496.078125 "/>
    <path style=" stroke:none;fill-rule:nonzero;fill:rgb(10.598755%,27.799988%,55.699158%);fill-opacity:1;" d="M 626.789062 498.21875 C 626.789062 492.167969 622.667969 488.261719 617.261719 488.261719 C 611.800781 488.261719 607.679688 492.167969 607.679688 498.21875 C 607.679688 504.265625 611.800781 508.226562 617.261719 508.226562 C 622.667969 508.226562 626.789062 504.265625 626.789062 498.21875 M 631.875 472.683594 L 631.875 512.402344 L 626.949219 512.402344 L 626.949219 507.90625 C 624.648438 511.117188 621.007812 512.722656 616.832031 512.722656 C 608.535156 512.722656 602.484375 506.890625 602.484375 498.21875 C 602.484375 489.546875 608.535156 483.765625 616.832031 483.765625 C 620.847656 483.765625 624.378906 485.265625 626.734375 488.316406 L 626.734375 472.683594 Z M 631.875 472.683594 "/>
    <path style=" stroke:none;fill-rule:nonzero;fill:rgb(10.598755%,27.799988%,55.699158%);fill-opacity:1;" d="M 644.132812 496.238281 L 662.335938 496.238281 C 661.800781 491.472656 658.210938 488.101562 653.234375 488.101562 C 648.308594 488.101562 644.671875 491.421875 644.132812 496.238281 M 667.152344 499.929688 L 644.132812 499.929688 C 644.777344 504.910156 648.792969 508.226562 654.410156 508.226562 C 657.730469 508.226562 660.511719 507.101562 662.601562 504.800781 L 665.4375 508.121094 C 662.871094 511.117188 658.960938 512.722656 654.25 512.722656 C 645.097656 512.722656 638.996094 506.675781 638.996094 498.21875 C 638.996094 489.8125 645.042969 483.765625 653.234375 483.765625 C 661.425781 483.765625 667.257812 489.652344 667.257812 498.378906 C 667.257812 498.804688 667.207031 499.449219 667.152344 499.929688 "/>
    <path style=" stroke:none;fill-rule:nonzero;fill:rgb(10.598755%,27.799988%,55.699158%);fill-opacity:1;" d="M 670.792969 509.40625 L 672.933594 505.335938 C 675.34375 507.050781 679.199219 508.28125 682.890625 508.28125 C 687.65625 508.28125 689.636719 506.835938 689.636719 504.425781 C 689.636719 498.054688 671.703125 503.570312 671.703125 492.273438 C 671.703125 487.191406 676.253906 483.765625 683.535156 483.765625 C 687.226562 483.765625 691.402344 484.726562 693.867188 486.335938 L 691.667969 490.402344 C 689.101562 488.742188 686.261719 488.15625 683.480469 488.15625 C 678.984375 488.15625 676.789062 489.8125 676.789062 492.0625 C 676.789062 498.753906 694.777344 493.292969 694.777344 504.320312 C 694.777344 509.457031 690.0625 512.722656 682.515625 512.722656 C 677.804688 512.722656 673.148438 511.277344 670.792969 509.40625 "/>
    <path style=" stroke:none;fill-rule:nonzero;fill:rgb(10.598755%,27.799988%,55.699158%);fill-opacity:1;" d="M 751.089844 512.402344 L 751.035156 485.101562 L 737.492188 507.851562 L 735.03125 507.851562 L 721.488281 485.261719 L 721.488281 512.402344 L 716.351562 512.402344 L 716.351562 474.933594 L 720.738281 474.933594 L 736.367188 501.269531 L 751.785156 474.933594 L 756.175781 474.933594 L 756.230469 512.402344 Z M 751.089844 512.402344 "/>
    <path style=" stroke:none;fill-rule:nonzero;fill:rgb(10.598755%,27.799988%,55.699158%);fill-opacity:1;" d="M 779.089844 479.910156 L 774.273438 479.910156 L 781.550781 472.953125 L 788.082031 472.953125 Z M 769.238281 496.238281 L 787.441406 496.238281 C 786.902344 491.472656 783.320312 488.101562 778.339844 488.101562 C 773.414062 488.101562 769.777344 491.421875 769.238281 496.238281 M 792.257812 499.929688 L 769.238281 499.929688 C 769.882812 504.90625 773.898438 508.226562 779.519531 508.226562 C 782.835938 508.226562 785.621094 507.101562 787.707031 504.800781 L 790.542969 508.121094 C 787.976562 511.117188 784.066406 512.722656 779.359375 512.722656 C 770.203125 512.722656 764.101562 506.675781 764.101562 498.21875 C 764.101562 489.8125 770.152344 483.765625 778.339844 483.765625 C 786.527344 483.765625 792.363281 489.652344 792.363281 498.378906 C 792.363281 498.808594 792.3125 499.449219 792.257812 499.929688 "/>
    <path style=" stroke:none;fill-rule:nonzero;fill:rgb(10.598755%,27.799988%,55.699158%);fill-opacity:1;" d="M 821.164062 498.21875 C 821.164062 492.167969 817.046875 488.261719 811.640625 488.261719 C 806.179688 488.261719 802.058594 492.167969 802.058594 498.21875 C 802.058594 504.265625 806.179688 508.226562 811.640625 508.226562 C 817.046875 508.226562 821.164062 504.265625 821.164062 498.21875 M 826.25 472.683594 L 826.25 512.402344 L 821.324219 512.402344 L 821.324219 507.90625 C 819.023438 511.117188 815.386719 512.722656 811.210938 512.722656 C 802.914062 512.722656 796.863281 506.890625 796.863281 498.21875 C 796.863281 489.546875 802.914062 483.765625 811.210938 483.765625 C 815.226562 483.765625 818.757812 485.265625 821.113281 488.316406 L 821.113281 472.683594 Z M 826.25 472.683594 "/>
    <path style=" stroke:none;fill-rule:nonzero;fill:rgb(10.598755%,27.799988%,55.699158%);fill-opacity:1;" d="M 835.996094 484.03125 L 841.136719 484.03125 L 841.136719 512.402344 L 835.996094 512.402344 Z M 835.085938 475.253906 C 835.085938 473.382812 836.585938 471.882812 838.566406 471.882812 C 840.546875 471.882812 842.046875 473.328125 842.046875 475.144531 C 842.046875 477.074219 840.601562 478.570312 838.566406 478.570312 C 836.585938 478.570312 835.085938 477.128906 835.085938 475.253906 "/>
    <path style=" stroke:none;fill-rule:nonzero;fill:rgb(10.598755%,27.799988%,55.699158%);fill-opacity:1;" d="M 848.308594 498.21875 C 848.308594 489.761719 854.570312 483.765625 863.296875 483.765625 C 868.382812 483.765625 872.609375 485.851562 874.859375 489.8125 L 870.953125 492.328125 C 869.128906 489.546875 866.347656 488.261719 863.242188 488.261719 C 857.675781 488.261719 853.5 492.167969 853.5 498.21875 C 853.5 504.371094 857.675781 508.226562 863.242188 508.226562 C 866.347656 508.226562 869.128906 506.941406 870.953125 504.160156 L 874.859375 506.621094 C 872.609375 510.582031 868.382812 512.722656 863.296875 512.722656 C 854.570312 512.722656 848.308594 506.675781 848.308594 498.21875 "/>
    <path style=" stroke:none;fill-rule:nonzero;fill:rgb(10.598755%,27.799988%,55.699158%);fill-opacity:1;" d="M 898.84375 503.730469 L 898.84375 499.769531 L 890.917969 499.769531 C 885.835938 499.769531 884.390625 501.75 884.390625 504.160156 C 884.390625 506.996094 886.742188 508.761719 890.652344 508.761719 C 894.503906 508.761719 897.558594 506.996094 898.84375 503.730469 M 903.980469 495.273438 L 903.980469 512.402344 L 899.109375 512.402344 L 899.109375 508.65625 C 897.398438 511.222656 894.238281 512.722656 889.796875 512.722656 C 883.371094 512.722656 879.304688 509.296875 879.304688 504.375 C 879.304688 499.824219 882.246094 496.078125 890.703125 496.078125 L 898.84375 496.078125 L 898.84375 495.058594 C 898.84375 490.722656 896.324219 488.207031 891.242188 488.207031 C 887.867188 488.207031 884.445312 489.386719 882.246094 491.257812 L 880.109375 487.40625 C 883.050781 485.050781 887.277344 483.765625 891.828125 483.765625 C 899.59375 483.765625 903.980469 487.511719 903.980469 495.273438 "/>
    <path style=" stroke:none;fill-rule:nonzero;fill:rgb(10.598755%,27.799988%,55.699158%);fill-opacity:1;" d="M 960.617188 496.078125 L 960.617188 512.402344 L 955.476562 512.402344 L 955.476562 496.664062 C 955.476562 491.097656 952.800781 488.367188 948.144531 488.367188 C 943.007812 488.367188 939.632812 491.632812 939.632812 497.789062 L 939.632812 512.402344 L 934.496094 512.402344 L 934.496094 496.664062 C 934.496094 491.097656 931.816406 488.367188 927.160156 488.367188 C 922.023438 488.367188 918.648438 491.632812 918.648438 497.789062 L 918.648438 512.402344 L 913.511719 512.402344 L 913.511719 484.03125 L 918.433594 484.03125 L 918.433594 488.261719 C 920.46875 485.371094 923.949219 483.765625 928.230469 483.765625 C 932.566406 483.765625 936.207031 485.476562 938.082031 489.011719 C 940.222656 485.800781 944.183594 483.765625 949 483.765625 C 955.90625 483.765625 960.617188 487.726562 960.617188 496.078125 "/>
    <path style=" stroke:none;fill-rule:nonzero;fill:rgb(10.598755%,27.799988%,55.699158%);fill-opacity:1;" d="M 972.773438 496.238281 L 990.972656 496.238281 C 990.4375 491.472656 986.847656 488.101562 981.871094 488.101562 C 976.949219 488.101562 973.308594 491.421875 972.773438 496.238281 M 995.789062 499.929688 L 972.773438 499.929688 C 973.414062 504.910156 977.429688 508.226562 983.046875 508.226562 C 986.367188 508.226562 989.152344 507.101562 991.238281 504.800781 L 994.078125 508.121094 C 991.507812 511.117188 987.597656 512.722656 982.886719 512.722656 C 973.734375 512.722656 967.632812 506.675781 967.632812 498.21875 C 967.632812 489.8125 973.679688 483.765625 981.871094 483.765625 C 990.0625 483.765625 995.898438 489.652344 995.898438 498.378906 C 995.898438 498.804688 995.84375 499.449219 995.789062 499.929688 "/>
    <path style=" stroke:none;fill-rule:nonzero;fill:rgb(10.598755%,27.799988%,55.699158%);fill-opacity:1;" d="M 1029.945312 496.078125 L 1029.945312 512.402344 L 1024.804688 512.402344 L 1024.804688 496.664062 C 1024.804688 491.097656 1022.019531 488.367188 1017.152344 488.367188 C 1011.6875 488.367188 1008.15625 491.632812 1008.15625 497.789062 L 1008.15625 512.402344 L 1003.019531 512.402344 L 1003.019531 484.03125 L 1007.945312 484.03125 L 1007.945312 488.3125 C 1010.03125 485.425781 1013.671875 483.765625 1018.167969 483.765625 C 1025.074219 483.765625 1029.945312 487.726562 1029.945312 496.078125 "/>
    <path style=" stroke:none;fill-rule:nonzero;fill:rgb(10.598755%,27.799988%,55.699158%);fill-opacity:1;" d="M 1055.425781 510.742188 C 1053.871094 512.082031 1051.519531 512.722656 1049.21875 512.722656 C 1043.488281 512.722656 1040.226562 509.566406 1040.226562 503.839844 L 1040.226562 488.261719 L 1035.40625 488.261719 L 1035.40625 484.03125 L 1040.226562 484.03125 L 1040.226562 477.824219 L 1045.363281 477.824219 L 1045.363281 484.03125 L 1053.5 484.03125 L 1053.5 488.261719 L 1045.363281 488.261719 L 1045.363281 503.625 C 1045.363281 506.675781 1046.96875 508.386719 1049.804688 508.386719 C 1051.304688 508.386719 1052.75 507.90625 1053.820312 507.050781 Z M 1055.425781 510.742188 "/>
    <path style=" stroke:none;fill-rule:nonzero;fill:rgb(10.598755%,27.799988%,55.699158%);fill-opacity:1;" d="M 1058.050781 509.40625 L 1060.191406 505.335938 C 1062.601562 507.050781 1066.453125 508.28125 1070.148438 508.28125 C 1074.910156 508.28125 1076.894531 506.835938 1076.894531 504.425781 C 1076.894531 498.054688 1058.960938 503.570312 1058.960938 492.273438 C 1058.960938 487.191406 1063.511719 483.765625 1070.789062 483.765625 C 1074.484375 483.765625 1078.65625 484.726562 1081.121094 486.335938 L 1078.925781 490.402344 C 1076.359375 488.742188 1073.519531 488.15625 1070.738281 488.15625 C 1066.238281 488.15625 1064.042969 489.8125 1064.042969 492.0625 C 1064.042969 498.753906 1082.03125 493.292969 1082.03125 504.320312 C 1082.03125 509.457031 1077.320312 512.722656 1069.773438 512.722656 C 1065.0625 512.722656 1060.40625 511.277344 1058.050781 509.40625 "/>
    <path style=" stroke:none;fill-rule:nonzero;fill:rgb(10.598755%,27.799988%,55.699158%);fill-opacity:1;" d="M 461.210938 560.476562 L 479.414062 560.476562 C 478.878906 555.710938 475.289062 552.339844 470.3125 552.339844 C 465.386719 552.339844 461.75 555.660156 461.210938 560.476562 M 484.230469 564.171875 L 461.210938 564.171875 C 461.855469 569.148438 465.871094 572.46875 471.488281 572.46875 C 474.808594 572.46875 477.589844 571.34375 479.679688 569.042969 L 482.515625 572.359375 C 479.949219 575.359375 476.039062 576.964844 471.328125 576.964844 C 462.175781 576.964844 456.074219 570.914062 456.074219 562.457031 C 456.074219 554.054688 462.121094 548.003906 470.3125 548.003906 C 478.503906 548.003906 484.335938 553.894531 484.335938 562.617188 C 484.335938 563.046875 484.285156 563.6875 484.230469 564.171875 "/>
    <path style=" stroke:none;fill-rule:nonzero;fill:rgb(10.598755%,27.799988%,55.699158%);fill-opacity:1;" d="M 507.410156 574.984375 C 505.859375 576.320312 503.503906 576.964844 501.203125 576.964844 C 495.472656 576.964844 492.207031 573.804688 492.207031 568.078125 L 492.207031 552.503906 L 487.390625 552.503906 L 487.390625 548.273438 L 492.207031 548.273438 L 492.207031 542.0625 L 497.347656 542.0625 L 497.347656 548.273438 L 505.484375 548.273438 L 505.484375 552.503906 L 497.347656 552.503906 L 497.347656 567.863281 C 497.347656 570.914062 498.953125 572.628906 501.789062 572.628906 C 503.289062 572.628906 504.734375 572.144531 505.804688 571.289062 Z M 507.410156 574.984375 "/>
    <path style=" stroke:none;fill-rule:nonzero;fill:rgb(10.598755%,27.799988%,55.699158%);fill-opacity:1;" d="M 549.699219 562.457031 C 549.699219 556.410156 545.578125 552.503906 540.171875 552.503906 C 534.710938 552.503906 530.589844 556.410156 530.589844 562.457031 C 530.589844 568.507812 534.710938 572.46875 540.171875 572.46875 C 545.578125 572.46875 549.699219 568.507812 549.699219 562.457031 M 554.785156 536.925781 L 554.785156 576.644531 L 549.859375 576.644531 L 549.859375 572.144531 C 547.558594 575.355469 543.917969 576.964844 539.746094 576.964844 C 531.445312 576.964844 525.398438 571.128906 525.398438 562.457031 C 525.398438 553.785156 531.445312 548.003906 539.746094 548.003906 C 543.757812 548.003906 547.292969 549.503906 549.644531 552.554688 L 549.644531 536.925781 Z M 554.785156 536.925781 "/>
    <path style=" stroke:none;fill-rule:nonzero;fill:rgb(10.598755%,27.799988%,55.699158%);fill-opacity:1;" d="M 567.046875 560.476562 L 585.246094 560.476562 C 584.710938 555.710938 581.125 552.339844 576.144531 552.339844 C 571.222656 552.339844 567.582031 555.660156 567.046875 560.476562 M 590.0625 564.171875 L 567.046875 564.171875 C 567.6875 569.148438 571.703125 572.46875 577.324219 572.46875 C 580.640625 572.46875 583.425781 571.34375 585.511719 569.042969 L 588.351562 572.359375 C 585.78125 575.359375 581.875 576.964844 577.164062 576.964844 C 568.007812 576.964844 561.90625 570.914062 561.90625 562.457031 C 561.90625 554.054688 567.957031 548.003906 576.144531 548.003906 C 584.335938 548.003906 590.171875 553.894531 590.171875 562.617188 C 590.171875 563.046875 590.117188 563.6875 590.0625 564.171875 "/>
    <path style=" stroke:none;fill-rule:nonzero;fill:rgb(10.598755%,27.799988%,55.699158%);fill-opacity:1;" d="M 611.691406 536.925781 L 616.832031 536.925781 L 616.832031 576.644531 L 611.691406 576.644531 Z M 611.691406 536.925781 "/>
    <path style=" stroke:none;fill-rule:nonzero;fill:rgb(10.598755%,27.799988%,55.699158%);fill-opacity:1;" d="M 643.972656 567.96875 L 643.972656 564.007812 L 636.050781 564.007812 C 630.964844 564.007812 629.519531 565.992188 629.519531 568.398438 C 629.519531 571.238281 631.875 573.003906 635.78125 573.003906 C 639.636719 573.003906 642.6875 571.238281 643.972656 567.96875 M 649.109375 559.515625 L 649.109375 576.644531 L 644.238281 576.644531 L 644.238281 572.894531 C 642.527344 575.464844 639.367188 576.964844 634.925781 576.964844 C 628.503906 576.964844 624.433594 573.539062 624.433594 568.613281 C 624.433594 564.0625 627.378906 560.316406 635.835938 560.316406 L 643.972656 560.316406 L 643.972656 559.300781 C 643.972656 554.964844 641.457031 552.449219 636.371094 552.449219 C 633 552.449219 629.574219 553.625 627.378906 555.5 L 625.238281 551.644531 C 628.179688 549.289062 632.410156 548.003906 636.960938 548.003906 C 644.722656 548.003906 649.109375 551.75 649.109375 559.515625 "/>
    <path style=" stroke:none;fill-rule:nonzero;fill:rgb(10.598755%,27.799988%,55.699158%);fill-opacity:1;" d="M 698.679688 552.234375 C 698.679688 546.878906 695.09375 543.832031 688.242188 543.832031 L 679.144531 543.832031 L 679.144531 560.636719 L 688.242188 560.636719 C 695.09375 560.636719 698.679688 557.585938 698.679688 552.234375 M 704.035156 552.234375 C 704.035156 560.371094 698.148438 565.296875 688.40625 565.296875 L 679.144531 565.296875 L 679.144531 576.640625 L 673.792969 576.640625 L 673.792969 539.171875 L 688.40625 539.171875 C 698.148438 539.171875 704.035156 544.097656 704.035156 552.234375 "/>
    <path style=" stroke:none;fill-rule:nonzero;fill:rgb(10.598755%,27.799988%,55.699158%);fill-opacity:1;" d="M 738.617188 560.316406 L 738.617188 576.640625 L 733.476562 576.640625 L 733.476562 560.90625 C 733.476562 555.339844 730.695312 552.609375 725.824219 552.609375 C 720.363281 552.609375 716.832031 555.875 716.832031 562.03125 L 716.832031 576.640625 L 711.691406 576.640625 L 711.691406 536.925781 L 716.832031 536.925781 L 716.832031 552.289062 C 718.972656 549.558594 722.503906 548.003906 726.839844 548.003906 C 733.746094 548.003906 738.617188 551.964844 738.617188 560.316406 "/>
    <path style=" stroke:none;fill-rule:nonzero;fill:rgb(10.598755%,27.799988%,55.699158%);fill-opacity:1;" d="M 765.492188 567.96875 L 765.492188 564.007812 L 757.570312 564.007812 C 752.484375 564.007812 751.039062 565.992188 751.039062 568.398438 C 751.039062 571.238281 753.394531 573.003906 757.300781 573.003906 C 761.15625 573.003906 764.207031 571.238281 765.492188 567.96875 M 770.628906 559.515625 L 770.628906 576.644531 L 765.757812 576.644531 L 765.757812 572.894531 C 764.046875 575.464844 760.886719 576.964844 756.445312 576.964844 C 750.019531 576.964844 745.953125 573.539062 745.953125 568.613281 C 745.953125 564.0625 748.898438 560.316406 757.355469 560.316406 L 765.492188 560.316406 L 765.492188 559.300781 C 765.492188 554.964844 762.976562 552.449219 757.890625 552.449219 C 754.515625 552.449219 751.09375 553.625 748.898438 555.5 L 746.757812 551.644531 C 749.703125 549.289062 753.929688 548.003906 758.480469 548.003906 C 766.238281 548.003906 770.628906 551.75 770.628906 559.515625 "/>
    <path style=" stroke:none;fill-rule:nonzero;fill:rgb(10.598755%,27.799988%,55.699158%);fill-opacity:1;" d="M 795.414062 548.003906 L 795.414062 552.984375 C 794.988281 552.929688 794.613281 552.929688 794.238281 552.929688 C 788.726562 552.929688 785.300781 556.300781 785.300781 562.511719 L 785.300781 576.644531 L 780.160156 576.644531 L 780.160156 548.273438 L 785.085938 548.273438 L 785.085938 553.035156 C 786.90625 549.71875 790.4375 548.003906 795.414062 548.003906 "/>
    <path style=" stroke:none;fill-rule:nonzero;fill:rgb(10.598755%,27.799988%,55.699158%);fill-opacity:1;" d="M 848.839844 560.316406 L 848.839844 576.640625 L 843.699219 576.640625 L 843.699219 560.90625 C 843.699219 555.339844 841.023438 552.609375 836.367188 552.609375 C 831.230469 552.609375 827.855469 555.875 827.855469 562.03125 L 827.855469 576.640625 L 822.71875 576.640625 L 822.71875 560.90625 C 822.71875 555.339844 820.039062 552.609375 815.386719 552.609375 C 810.246094 552.609375 806.871094 555.875 806.871094 562.03125 L 806.871094 576.640625 L 801.734375 576.640625 L 801.734375 548.273438 L 806.660156 548.273438 L 806.660156 552.503906 C 808.695312 549.613281 812.171875 548.003906 816.453125 548.003906 C 820.789062 548.003906 824.429688 549.71875 826.304688 553.25 C 828.445312 550.039062 832.40625 548.003906 837.222656 548.003906 C 844.128906 548.003906 848.839844 551.964844 848.839844 560.316406 "/>
    <path style=" stroke:none;fill-rule:nonzero;fill:rgb(10.598755%,27.799988%,55.699158%);fill-opacity:1;" d="M 875.660156 567.96875 L 875.660156 564.007812 L 867.738281 564.007812 C 862.65625 564.007812 861.210938 565.992188 861.210938 568.398438 C 861.210938 571.238281 863.5625 573.003906 867.472656 573.003906 C 871.324219 573.003906 874.378906 571.238281 875.660156 567.96875 M 880.800781 559.515625 L 880.800781 576.644531 L 875.929688 576.644531 L 875.929688 572.894531 C 874.21875 575.464844 871.058594 576.964844 866.617188 576.964844 C 860.191406 576.964844 856.125 573.539062 856.125 568.613281 C 856.125 564.0625 859.066406 560.316406 867.523438 560.316406 L 875.660156 560.316406 L 875.660156 559.300781 C 875.660156 554.964844 873.144531 552.449219 868.0625 552.449219 C 864.6875 552.449219 861.265625 553.625 859.066406 555.5 L 856.929688 551.644531 C 859.871094 549.289062 864.097656 548.003906 868.648438 548.003906 C 876.410156 548.003906 880.800781 551.75 880.800781 559.515625 "/>
    <path style=" stroke:none;fill-rule:nonzero;fill:rgb(10.598755%,27.799988%,55.699158%);fill-opacity:1;" d="M 887.867188 562.457031 C 887.867188 554 894.132812 548.003906 902.855469 548.003906 C 907.941406 548.003906 912.171875 550.09375 914.417969 554.054688 L 910.511719 556.570312 C 908.691406 553.785156 905.90625 552.503906 902.804688 552.503906 C 897.234375 552.503906 893.058594 556.410156 893.058594 562.457031 C 893.058594 568.613281 897.234375 572.46875 902.804688 572.46875 C 905.90625 572.46875 908.691406 571.183594 910.511719 568.398438 L 914.417969 570.859375 C 912.171875 574.820312 907.941406 576.964844 902.855469 576.964844 C 894.132812 576.964844 887.867188 570.914062 887.867188 562.457031 "/>
    <path style=" stroke:none;fill-rule:nonzero;fill:rgb(10.598755%,27.799988%,55.699158%);fill-opacity:1;" d="M 921.058594 548.273438 L 926.199219 548.273438 L 926.199219 576.640625 L 921.058594 576.640625 Z M 920.148438 539.492188 C 920.148438 537.621094 921.648438 536.121094 923.628906 536.121094 C 925.609375 536.121094 927.105469 537.566406 927.105469 539.386719 C 927.105469 541.3125 925.660156 542.8125 923.628906 542.8125 C 921.648438 542.8125 920.148438 541.367188 920.148438 539.492188 "/>
    <path style=" stroke:none;fill-rule:nonzero;fill:rgb(10.598755%,27.799988%,55.699158%);fill-opacity:1;" d="M 938.511719 560.476562 L 956.710938 560.476562 C 956.175781 555.710938 952.585938 552.339844 947.609375 552.339844 C 942.6875 552.339844 939.046875 555.660156 938.511719 560.476562 M 961.527344 564.171875 L 938.511719 564.171875 C 939.152344 569.148438 943.167969 572.46875 948.785156 572.46875 C 952.105469 572.46875 954.890625 571.34375 956.976562 569.042969 L 959.816406 572.359375 C 957.246094 575.359375 953.335938 576.964844 948.625 576.964844 C 939.472656 576.964844 933.371094 570.914062 933.371094 562.457031 C 933.371094 554.054688 939.417969 548.003906 947.609375 548.003906 C 955.800781 548.003906 961.636719 553.894531 961.636719 562.617188 C 961.636719 563.046875 961.582031 563.6875 961.527344 564.171875 "/>
  </g>
</svg>